# xmcd
#
# Track frame offsets:
#	150
#	8889
#	19459
#	31613
#	46530
#	63385
#	79747
#	86964
#	98048
#	117230
#	132427
#	151734
#	162129
#	173796
#	187050
#	198920
#
# Disc length: 2885 seconds
#
# Revision: 0
# Processed by: cddbd v1.5.1PL0 Copyright (c) Steve Scherf et al.
# Submitted via: dBpowerAMP V4.0
#
DISCID=c30b4310
DTITLE=The Brothers - In Concert
DYEAR=1993
DGENRE=Gospel
TTITLE0=Brothers' Tune
TTITLE1=I 'll be no stranger there
TTITLE2=The river of Jordan
TTITLE3=Don't judge your neighbour
TTITLE4=Little mountain churchhouse
TTITLE5=There is power in the blood
TTITLE6=Chicken Reel
TTITLE7=Can't you hear Jerusalem moan
TTITLE8=Wayfaring Stranger
TTITLE9=Are you washed in the blood
TTITLE10=Lord, don't forsake me
TTITLE11=The man in the middle
TTITLE12=Down Yonder
TTITLE13=Open up the window Noah
TTITLE14=Ik vermag alle dingen
TTITLE15=Who will sing for me
EXTD=
EXTT0=
EXTT1=
EXTT2=
EXTT3=
EXTT4=
EXTT5=
EXTT6=
EXTT7=
EXTT8=
EXTT9=
EXTT10=
EXTT11=
EXTT12=
EXTT13=
EXTT14=
EXTT15=
PLAYORDER=
